# xmcd CD database file
#
# Track frame offsets:
#	150
#	21375
#	47550
#	72279
#	100868
#	137157
#	187614
#	199812
#	219322
#	260121
#
# Disc length: 3701 seconds
#
# Revision: 1
# Processed by: cddbd v1.5.2PL0 Copyright (c) Steve Scherf et al.
# Submitted via: CDex 1.70beta2
#
DISCID=8f0e730a
DTITLE=Chris Barber Jazz and Blues Band - Chris Barber 40 Years Jubilee CD2
DYEAR=1995
DGENRE=Jazz
TTITLE0=Bourbon Street Parade
TTITLE1=All The Girls Go Grazy
TTITLE2=Ellingtonia: Double Check Stomp/Stevedore Stomp/Goin´To Town
TTITLE3=Workin´Man Blues
TTITLE4=St.Louis Blues March
TTITLE5=Goin´Up The River
TTITLE6=Medley: Petit Fleur
TTITLE7=Medley: Sweet Georgia Brown, Slap´n Slide
TTITLE8=Medley: Tiger rag, Mile End Stomp
TTITLE9=Wildcat Blues
EXTD=YEAR: 1995
EXTT0=
EXTT1=
EXTT2=
EXTT3=
EXTT4=
EXTT5=
EXTT6=
EXTT7=
EXTT8=
EXTT9=
PLAYORDER=
